<svg width="241" height="72" viewBox="0 0 241 72" fill="none" xmlns="http://www.w3.org/2000/svg">
<path d="M19.468 21.964C23.208 21.284 29.396 18.428 29.396 12.92C29.396 7.412 25.044 5.304 21.644 5.304C20.148 5.304 17.02 5.916 14.64 5.916C12.26 5.916 10.628 3.604 10.628 1.632C10.628 1.292 10.696 0.883997 10.832 0.543997C8.044 2.176 5.188 4.08 5.188 8.024C5.188 13.328 9.268 14.892 11.784 14.892C13.96 14.892 15.184 14.28 17.632 14.28C19.808 14.28 21.372 15.708 21.372 17.544C21.372 20.4 18.584 21.012 17.36 21.624C20.692 23.188 23.888 26.588 23.888 33.388C23.888 42.908 16.408 49.164 11.444 49.164C7.772 49.164 5.324 46.58 5.324 43.52C5.324 35.156 20.42 37.536 20.42 28.968C20.42 25.296 17.904 22.508 13.62 22.508C8.384 22.508 0.36 27.744 0.36 36.72C0.36 45.968 8.044 51.816 17.36 51.816C26.88 51.816 34.36 45.968 34.36 36.72C34.36 28.356 27.832 22.508 19.468 21.964ZM53.4027 19.584C48.6427 20.196 46.8747 23.732 46.8747 26.452C46.8747 35.564 57.4147 36.788 57.4147 44.404C57.4147 47.26 55.7147 50.116 51.7027 50.116C48.3707 50.116 46.3987 47.6 46.3987 45.22C46.3987 42.296 48.3027 41.344 48.3027 38.42C48.3027 35.292 46.1267 32.776 42.8627 32.776C39.8707 32.776 37.0827 35.156 37.0827 40.052C37.0827 47.056 42.5907 51.816 51.7707 51.816C59.3867 51.816 66.1187 48.212 66.1187 40.46C66.1187 30.26 53.1987 26.52 53.1987 20.876C53.1987 20.468 53.2667 20.06 53.4027 19.584ZM95.1408 46.308C100.377 46.308 102.213 39.848 102.213 36.992C102.213 27.404 95.2088 21.624 86.0288 21.624C76.8488 21.624 68.8248 28.22 68.8248 39.44C68.8248 46.172 73.9248 52.632 79.2288 55.284C74.4688 56.1 72.4288 60.316 72.4288 62.288C72.4288 62.764 72.5648 63.104 72.7688 63.24C74.7408 61.88 76.8488 60.928 81.0648 60.928C86.0968 60.928 91.6728 64.6 91.6728 69.428C91.6728 70.108 91.6048 70.788 91.3328 71.536C94.8688 70.652 98.1328 67.592 98.1328 63.92C98.1328 51.952 79.0248 50.456 79.0248 37.264C79.0248 29.444 83.3768 24.276 88.2048 24.276C91.7408 24.276 94.6648 26.18 94.6648 29.172C94.6648 34.476 89.0208 35.904 89.0208 40.732C89.0208 44.268 91.6728 46.308 95.1408 46.308ZM121.27 19.584C116.51 20.196 114.742 23.732 114.742 26.452C114.742 35.564 125.282 36.788 125.282 44.404C125.282 47.26 123.582 50.116 119.57 50.116C116.238 50.116 114.266 47.6 114.266 45.22C114.266 42.296 116.17 41.344 116.17 38.42C116.17 35.292 113.994 32.776 110.73 32.776C107.738 32.776 104.95 35.156 104.95 40.052C104.95 47.056 110.458 51.816 119.638 51.816C127.254 51.816 133.986 48.212 133.986 40.46C133.986 30.26 121.066 26.52 121.066 20.876C121.066 20.468 121.134 20.06 121.27 19.584ZM156.548 22.712C160.424 19.312 164.028 14.892 164.028 10.608C164.028 2.448 155.8 1.496 154.372 1.904C154.372 1.904 155.12 3.06 155.12 5.168C155.12 14.62 136.692 17.816 136.692 37.06C136.692 44.88 142.132 53.244 150.972 51.612C149.68 49.912 147.096 45.492 147.096 38.284C147.096 31.28 151.924 24.888 157.364 24.888C161.92 24.888 162.6 28.492 162.6 29.988C162.6 37.4 154.236 39.236 154.236 46.24C154.236 48.96 156.344 51.816 159.676 51.816C166.952 51.816 169.264 42.092 169.264 38.352C169.264 32.64 166.272 24.004 156.548 22.712ZM205.763 30.26C204.607 25.636 200.323 23.936 196.039 23.936C196.107 23.392 196.107 22.78 196.107 22.236C196.107 9.588 189.715 1.292 182.031 1.904C182.031 1.904 187.131 9.112 187.131 20.4C187.131 21.828 187.063 23.188 186.995 24.48C176.455 24.412 175.367 19.992 174.687 18.632C173.667 19.516 171.899 21.284 171.899 24.548C171.899 30.396 176.455 33.184 181.215 33.184C182.303 33.184 184.071 33.116 185.907 32.98C184.887 37.876 183.663 40.936 183.323 40.8C186.519 42.432 190.259 46.852 190.259 56.032C190.259 63.376 188.423 69.972 183.459 69.972C180.331 69.972 178.223 67.932 178.223 65.076C178.223 60.452 182.371 59.772 182.371 54.196C182.371 49.912 178.563 47.736 175.979 47.736C173.259 47.736 168.567 49.3 168.567 56.848C168.567 65.62 174.959 71.536 184.071 71.536C193.251 71.536 200.595 65.62 200.595 56.848C200.595 49.504 195.359 42.16 188.015 40.8C190.531 39.712 192.843 36.924 194.407 32.844C201.275 33.592 203.247 37.74 203.247 37.74C203.247 37.74 205.899 35.428 205.899 31.824C205.899 31.348 205.899 30.804 205.763 30.26ZM218.538 51.816C211.058 51.816 208.61 41.82 208.61 37.944C208.61 31.484 211.942 21.624 224.046 21.624C233.566 21.624 240.502 28.22 240.502 38.216C240.502 44.132 236.218 51.816 229.35 51.816C228.602 51.816 227.854 51.748 227.038 51.544C228.33 49.776 230.778 45.356 230.778 37.876C230.778 30.532 226.494 23.936 220.85 23.936C216.158 23.936 215.41 27.744 215.41 29.24C215.41 36.924 224.182 38.828 224.182 46.104C224.182 48.96 221.938 51.816 218.538 51.816Z" fill="#202020"></path>
</svg>
